<?xml version="1.0" encoding="UTF-8"?>
<svg width="14px" height="14px" viewBox="0 0 14 14" version="1.1" xmlns="http://www.w3.org/2000/svg" xmlns:xlink="http://www.w3.org/1999/xlink">
    <!-- Generator: Sketch 52.4 (67378) - http://www.bohemiancoding.com/sketch -->
    <title>上传 (1)</title>
    <desc>Created with Sketch.</desc>
    <g id="Page-1" stroke="none" stroke-width="1" fill="none" fill-rule="evenodd">
        <g id="新建商品" transform="translate(-685.000000, -544.000000)">
            <g id="Group-21" transform="translate(280.000000, 186.000000)">
                <g id="Group-10">
                    <g id="Group-19" transform="translate(288.000000, 32.000000)">
                        <g id="Button/Dashed/Icon/Medium" transform="translate(92.000000, 248.000000)">
                            <g id="Group" transform="translate(25.000000, 74.000000)">
                                <g id="上传-(1)" transform="translate(0.000000, 4.000000)">
                                    <rect id="Rectangle" fill="#000000" opacity="0" x="0" y="0" width="14" height="14"></rect>
                                    <path d="M10.5,4.8125 C12.191372,4.81250003 13.5625,6.18362797 13.5625,7.875 C13.5625,9.56637203 12.191372,10.9375 10.5,10.9375 L10.0625,10.9375 C9.82087542,10.9375 9.625,10.7416246 9.625,10.5 C9.625,10.2583754 9.82087542,10.0625 10.0625,10.0625 L10.5,10.0625 C11.7081229,10.0625 12.6875,9.08312289 12.6875,7.875 C12.6875,6.66687711 11.7081229,5.6875 10.5,5.6875 C10.3723019,5.68706438 10.2448522,5.69878389 10.119375,5.7225 C9.99982039,5.74655708 9.87565041,5.71962215 9.77680917,5.64819066 C9.67796792,5.57675917 9.61342674,5.46731462 9.59875,5.34625 C9.41441887,4.05262817 8.30668872,3.09155182 7,3.09155182 C5.69331128,3.09155182 4.58558113,4.05262817 4.40125,5.34625 C4.38657326,5.46731462 4.32203208,5.57675917 4.22319083,5.64819066 C4.12434959,5.71962215 4.00017961,5.74655708 3.880625,5.7225 C3.75514777,5.69878389 3.62769808,5.68706438 3.5,5.6875 C2.29187711,5.6875 1.3125,6.66687711 1.3125,7.875 C1.3125,9.08312289 2.29187711,10.0625 3.5,10.0625 L3.9375,10.0625 C4.17912458,10.0625 4.375,10.2583754 4.375,10.5 C4.375,10.7416246 4.17912458,10.9375 3.9375,10.9375 L3.5,10.9375 C1.80862797,10.9375 0.437500046,9.56637203 0.437500046,7.875 C0.437500046,6.18362797 1.80862797,4.81250003 3.5,4.8125 L3.61375,4.8125 C4.0163534,3.27211471 5.4078705,2.19754855 7,2.19754855 C8.5921295,2.19754855 9.9836466,3.27211471 10.38625,4.8125 L10.5,4.8125 Z M7.4375,12.25 C7.4375,12.4916246 7.24162458,12.6875 7,12.6875 C6.75837542,12.6875 6.5625,12.4916246 6.5625,12.25 L6.5625,8.3125 C6.5625,8.07087542 6.75837542,7.875 7,7.875 C7.24162458,7.875 7.4375,8.07087542 7.4375,8.3125 L7.4375,12.25 Z M5.796875,10.35125 C5.69597361,10.4765242 5.53446577,10.5363245 5.37631086,10.5069693 C5.21815594,10.4776142 5.08886559,10.3638386 5.03964057,10.2106995 C4.99041555,10.0575603 5.02919626,9.88976009 5.140625,9.77375 L6.671875,8.02375 C6.75492696,7.92957793 6.87443725,7.87562905 7,7.87562905 C7.12556275,7.87562905 7.24507304,7.92957793 7.328125,8.02375 L8.859375,9.77375 C9.00628835,9.95615031 8.98349955,10.2218966 8.80767641,10.3766209 C8.63185327,10.5313453 8.36536626,10.5201618 8.203125,10.35125 L7,8.9775 L5.796875,10.35125 Z" id="Shape" fill="#595959" fill-rule="nonzero"></path>
                                </g>
                            </g>
                        </g>
                    </g>
                </g>
            </g>
        </g>
    </g>
</svg>