<?xml version="1.0" encoding="UTF-8"?>
<svg width="16px" height="16px" viewBox="0 0 16 16" version="1.1" xmlns="http://www.w3.org/2000/svg" xmlns:xlink="http://www.w3.org/1999/xlink">
    <!-- Generator: Sketch 52.4 (67378) - http://www.bohemiancoding.com/sketch -->
    <title>iconDelete</title>
    <desc>Created with Sketch.</desc>
    <g id="Page-1" stroke="none" stroke-width="1" fill="none" fill-rule="evenodd">
        <g id="新建商品" transform="translate(-940.000000, -794.000000)">
            <g id="Group-21" transform="translate(280.000000, 186.000000)">
                <g id="Group-10">
                    <g id="Group-19" transform="translate(288.000000, 32.000000)">
                        <g id="Button/Dashed/Icon/Medium" transform="translate(372.000000, 573.000000)">
                            <g id="Group">
                                <g id="iconDelete" transform="translate(0.000000, 3.000000)">
                                    <rect id="Rectangle" x="0" y="0" width="16" height="16"></rect>
                                    <g id="Group" transform="translate(2.181818, 2.545455)" fill="#FF1A2E">
                                        <path d="M9.34545455,2.90909091 L9.34545455,8.94545455 C9.34545455,9.45454545 8.94545455,9.85454545 8.43636364,9.85454545 L3.2,9.85454545 C2.69090909,9.85454545 2.29090909,9.45454545 2.29090909,8.94545455 L2.29090909,2.90909091 L1.2,2.90909091 L1.2,8.94545455 C1.2,10.0363636 2.10909091,10.9454545 3.2,10.9454545 L8.43636364,10.9454545 C9.52727273,10.9454545 10.4363636,10.0363636 10.4363636,8.94545455 L10.4363636,2.90909091 L9.34545455,2.90909091 Z" id="Path"></path>
                                        <path d="M0.836363636,2.90909091 L10.8,2.90909091 C11.0909091,2.90909091 11.3454545,2.65454545 11.3454545,2.36363636 C11.3454545,2.07272727 11.0909091,1.81818182 10.8,1.81818182 L0.836363636,1.81818182 C0.545454545,1.81818182 0.290909091,2.07272727 0.290909091,2.36363636 C0.290909091,2.65454545 0.545454545,2.90909091 0.836363636,2.90909091 Z" id="Path"></path>
                                        <path d="M4.29090909,1.41818182 C4.36363636,1.23636364 4.65454545,1.05454545 4.87272727,1.05454545 L6.83636364,1.05454545 C7.01818182,1.05454545 7.30909091,1.23636364 7.41818182,1.41818182 L7.81818182,2.21818182 C7.96363636,2.47272727 8.29090909,2.58181818 8.54545455,2.47272727 C8.8,2.36363636 8.90909091,2 8.8,1.74545455 L8.4,0.945454545 C8.07272727,0.4 7.41818182,0 6.8,0 L4.83636364,0 C4.21818182,0 3.56363636,0.4 3.30909091,0.945454545 L2.90909091,1.74545455 C2.76363636,2 2.87272727,2.32727273 3.16363636,2.47272727 C3.41818182,2.61818182 3.74545455,2.50909091 3.89090909,2.21818182 L4.29090909,1.41818182 Z" id="Path"></path>
                                        <g transform="translate(3.636364, 4.363636)" id="Path">
                                            <path d="M0.8,0.0363636364 C1.09090909,0.0363636364 1.34545455,0.290909091 1.34545455,0.581818182 L1.34545455,3.45454545 C1.34545455,3.74545455 1.09090909,4 0.8,4 C0.509090909,4 0.254545455,3.74545455 0.254545455,3.45454545 L0.254545455,0.581818182 C0.254545455,0.290909091 0.509090909,0.0363636364 0.8,0.0363636364 Z"></path>
                                            <path d="M3.56363636,0.0363636364 C3.85454545,0.0363636364 4.10909091,0.290909091 4.10909091,0.581818182 L4.10909091,3.45454545 C4.10909091,3.74545455 3.85454545,4 3.56363636,4 C3.27272727,4 3.01818182,3.74545455 3.01818182,3.45454545 L3.01818182,0.581818182 C3.01818182,0.290909091 3.27272727,0.0363636364 3.56363636,0.0363636364 Z"></path>
                                        </g>
                                    </g>
                                </g>
                            </g>
                        </g>
                    </g>
                </g>
            </g>
        </g>
    </g>
</svg>