<?xml version="1.0" encoding="UTF-8"?>
<svg width="16px" height="16px" viewBox="0 0 16 16" version="1.1" xmlns="http://www.w3.org/2000/svg" xmlns:xlink="http://www.w3.org/1999/xlink">
    <!-- Generator: Sketch 52.4 (67378) - http://www.bohemiancoding.com/sketch -->
    <title>iconHomework</title>
    <desc>Created with Sketch.</desc>
    <g id="Page-1" stroke="none" stroke-width="1" fill="none" fill-rule="evenodd">
        <g id="导航栏" transform="translate(-537.000000, -164.000000)">
            <g id="iconHomework-Copy" transform="translate(537.000000, 164.000000)">
                <rect id="Rectangle" x="0.11826087" y="0.11826087" width="15.7634783" height="15.7634783"></rect>
                <path d="M4.36521739,3.35304348 L11.6347826,3.35304348 C12.0655864,3.35304348 12.4787457,3.52417963 12.78337,3.82880394 C13.0879943,4.13342825 13.2591304,4.54658748 13.2591304,4.9773913 L13.2591304,8.2226087 C13.2572105,10.6666711 11.2753675,12.6469573 8.83130435,12.6469565 L4.36521739,12.6469565 C3.93441356,12.6469565 3.52125434,12.4758204 3.21663003,12.1711961 C2.91200572,11.8665717 2.74086957,11.4534125 2.74086957,11.0226087 L2.74086957,4.9773913 C2.74086957,4.08028877 3.46811486,3.35304348 4.36521739,3.35304348 Z" id="Path" stroke="#FFFFFF" stroke-width="1.04347826" stroke-linecap="round" stroke-linejoin="round"></path>
                <path d="M5.74956522,7.17217391 L9.44347826,7.17217391" id="Path" stroke="#FFFFFF" stroke-width="1.04347826" stroke-linecap="round" stroke-linejoin="round"></path>
                <path d="M5.74956522,9.57913043 L7.59652174,9.57913043" id="Path" stroke="#FFFFFF" stroke-width="1.04347826" stroke-linecap="round" stroke-linejoin="round"></path>
                <path d="M5.74956522,2.72695652 L5.74956522,3.97565217" id="Path" stroke="#FFFFFF" stroke-width="1.04347826" stroke-linecap="round" stroke-linejoin="round"></path>
                <path d="M10.2504348,2.72695652 L10.2504348,3.97565217" id="Path" stroke="#FFFFFF" stroke-width="1.04347826" stroke-linecap="round" stroke-linejoin="round"></path>
            </g>
        </g>
    </g>
</svg>