<?xml version="1.0" encoding="UTF-8"?>
<svg width="14px" height="14px" viewBox="0 0 14 14" version="1.1" xmlns="http://www.w3.org/2000/svg" xmlns:xlink="http://www.w3.org/1999/xlink">
    <!-- Generator: Sketch 52.4 (67378) - http://www.bohemiancoding.com/sketch -->
    <title>Shape 2</title>
    <desc>Created with Sketch.</desc>
    <g id="Page-1" stroke="none" stroke-width="1" fill="none" fill-rule="evenodd">
        <g id="商品管理" transform="translate(-328.000000, -279.000000)" fill="#1890FF">
            <g id="Group-6" transform="translate(280.000000, 186.000000)">
                <g id="Group-13" transform="translate(32.000000, 80.000000)">
                    <g id="Shape-2" transform="translate(16.000000, 13.000000)">
                        <path d="M7,14 C3.13359375,14 0,10.8664062 0,7 C0,3.13359375 3.13359375,0 7,0 C10.8664062,0 14,3.13359375 14,7 C14,10.8664062 10.8664062,14 7,14 L7,14 Z M7.5,12 C7.7765625,12 8,11.7765625 8,11.5 C8,11.2234375 7.7765625,11 7.5,11 C7.2234375,11 7,11.2234375 7,11.5 C7,11.7765625 7.2234375,12 7.5,12 L7.5,12 Z M8.48638132,3 L7.47470817,3 L6.47859922,3 L5.51361868,3 C5.2381323,3 5.0155642,3.19045505 5.0155642,3.42619312 C5.0155642,3.66193119 5.2381323,3.85238624 5.51361868,3.85238624 L6.47859922,3.85238624 L6.47859922,8.14761376 L5.49805447,8.14761376 C5.22256809,8.14761376 5,8.33806881 5,8.57380688 C5,8.80954495 5.22256809,9 5.49805447,9 L6.47859922,9 L6.9766537,9 C7.25214008,9 7.47470817,8.80954495 7.47470817,8.57380688 L7.47470817,3.85238624 L8.48638132,3.85238624 C8.7618677,3.85238624 9,3.66193119 9,3.42619312 C9,3.19045505 8.7618677,3 8.48638132,3 L8.48638132,3 Z" id="Shape" transform="translate(7.000000, 7.000000) scale(1, -1) translate(-7.000000, -7.000000) "></path>
                    </g>
                </g>
            </g>
        </g>
    </g>
</svg>